<?xml version="1.0" encoding="UTF-8"?>
<svg width="67px" height="15px" viewBox="0 0 67 15" version="1.1" xmlns="http://www.w3.org/2000/svg" xmlns:xlink="http://www.w3.org/1999/xlink">
    <defs>
        <polygon id="path-1" points="0.0143712575 10.697006 0.0143712575 0.0464670659 8.56526946 0.0464670659 8.56526946 10.697006"></polygon>
        <polygon id="path-3" points="12.9633533 14.3568862 0.0481437126 14.3568862 0.0481437126 0.225628743 12.9633533 0.225628743"></polygon>
    </defs>
    <g id="Page-1" stroke="none" stroke-width="1" fill="none" fill-rule="evenodd">
        <g id="Design-(mobile)" transform="translate(-16.000000, -79.000000)">
            <g id="TedHelps_logo_liggande" transform="translate(16.000000, 79.000000)">
                <g id="Group-3" transform="translate(0.000000, 1.107784)">
                    <mask id="mask-2" fill="white">
                        <use xlink:href="#path-1"></use>
                    </mask>
                    <g id="Clip-2"></g>
                    <polyline id="Fill-1" fill="#942E76" mask="url(#mask-2)" points="8.56526946 0.736526946 4.6651497 0.736526946 4.6651497 10.697006 3.90011976 10.697006 3.90011976 0.736526946 0 0.736526946 0 0.0464670659 8.56526946 0.0464670659 8.56526946 0.736526946"></polyline>
                </g>
                <path d="M14.6553293,7.6045509 C14.6251497,7.14467066 14.5226347,6.72479042 14.3477844,6.34443114 C14.1726946,5.9645509 13.9477844,5.63712575 13.6728144,5.36215569 C13.3976048,5.08694611 13.0802395,4.87233533 12.7202395,4.71688623 C12.3602395,4.56215569 11.9750898,4.4845509 11.5650299,4.4845509 C11.1549701,4.4845509 10.7702994,4.56215569 10.4100599,4.71688623 C10.0500599,4.87233533 9.73269461,5.08694611 9.45772455,5.36215569 C9.18251497,5.63712575 8.96263473,5.96718563 8.79760479,6.35209581 C8.63257485,6.73724551 8.53508982,7.15449102 8.5051497,7.6045509 L14.6553293,7.6045509 Z M11.5952096,11.9547305 C11.0450299,11.9547305 10.5350898,11.8471856 10.0651497,11.6323353 C9.59497006,11.4172455 9.18754491,11.1223952 8.84263473,10.7473054 C8.49748503,10.3722156 8.22754491,9.93988024 8.03257485,9.44958084 C7.83760479,8.95976048 7.74011976,8.43497006 7.74011976,7.87473054 C7.74011976,7.32479042 7.83760479,6.80718563 8.03257485,6.32215569 C8.22754491,5.83712575 8.49508982,5.41221557 8.83497006,5.04694611 C9.1748503,4.68215569 9.57772455,4.39449102 10.0426347,4.18467066 C10.5075449,3.97461078 11.0100599,3.86946108 11.5501796,3.86946108 C12.1001198,3.86946108 12.6100599,3.97724551 13.0802395,4.19209581 C13.5501796,4.40718563 13.9552096,4.69700599 14.2953293,5.06203593 C14.6352096,5.42706587 14.9001198,5.85221557 15.0902994,6.33700599 C15.2802395,6.82227545 15.3753293,7.33461078 15.3753293,7.87473054 C15.3753293,7.92479042 15.3753293,7.98730539 15.3753293,8.06203593 C15.3753293,8.13724551 15.3700599,8.18467066 15.3602395,8.20479042 L8.52,8.20479042 C8.55017964,8.65461078 8.65508982,9.07233533 8.83497006,9.45700599 C9.01508982,9.84239521 9.24239521,10.1750898 9.51760479,10.4546108 C9.79257485,10.7346108 10.1101796,10.9547305 10.4701796,11.1147305 C10.8301796,11.2747305 11.2148503,11.3547305 11.6251497,11.3547305 C11.8950898,11.3547305 12.16,11.3173653 12.4201198,11.2423952 C12.6802395,11.1671856 12.9226347,11.0646707 13.1477844,10.9346108 C13.3726946,10.8047904 13.5726946,10.6474251 13.7477844,10.4622754 C13.9226347,10.2771257 14.0601198,10.0749701 14.1602395,9.8548503 L14.8203593,10.0347305 C14.7101796,10.3149701 14.5477844,10.5724551 14.3326946,10.8071856 C14.1176048,11.0423952 13.8677844,11.2447904 13.5827545,11.4146108 C13.2977246,11.5849102 12.9851497,11.7173653 12.6452695,11.8122156 C12.3051497,11.9073054 11.9552096,11.9547305 11.5952096,11.9547305 L11.5952096,11.9547305 Z" id="Fill-4" fill="#942E76"></path>
                <path d="M20.3702994,11.2797605 C20.640479,11.2797605 20.9302994,11.2249102 21.2402395,11.1147305 C21.5501796,11.0047904 21.8378443,10.8522156 22.102994,10.6572455 C22.3676647,10.4622754 22.5954491,10.2397605 22.7853892,9.9897006 C22.9753293,9.73988024 23.085509,9.4697006 23.1154491,9.17964072 L23.1154491,6.61461078 C23.0052695,6.33461078 22.8476647,6.06706587 22.6428743,5.81221557 C22.4378443,5.55712575 22.2052695,5.33724551 21.9453892,5.15209581 C21.6852695,4.96694611 21.4052695,4.81964072 21.1053892,4.70946108 C20.805509,4.59952096 20.5152096,4.54467066 20.2354491,4.54467066 C19.7853892,4.54467066 19.3750898,4.64215569 19.0052695,4.83688623 C18.6352096,5.03209581 18.3202395,5.28694611 18.0603593,5.60215569 C17.8002395,5.91712575 17.6002395,6.27712575 17.4603593,6.68215569 C17.32,7.08718563 17.2502994,7.50467066 17.2502994,7.93461078 C17.2502994,8.38467066 17.3302994,8.80982036 17.4902994,9.20958084 C17.6500599,9.60982036 17.8728144,9.96502994 18.1578443,10.2747305 C18.4428743,10.5846707 18.7729341,10.8297006 19.1477844,11.0098204 C19.5228743,11.1897006 19.9302994,11.2797605 20.3702994,11.2797605 Z M20.2354491,11.9547305 C19.6953293,11.9547305 19.1952096,11.8421557 18.7353293,11.6172455 C18.2752096,11.3923353 17.8776048,11.0924551 17.5427545,10.7171257 C17.2076647,10.3422754 16.9477844,9.91233533 16.7628743,9.42706587 C16.5777246,8.94227545 16.4852695,8.43976048 16.4852695,7.91976048 C16.4852695,7.37964072 16.5750898,6.86467066 16.7552096,6.37461078 C16.9353293,5.8845509 17.1851497,5.45461078 17.5053892,5.0845509 C17.8251497,4.71473054 18.2028743,4.41964072 18.6378443,4.19952096 C19.0728144,3.97964072 19.5501796,3.86946108 20.0704192,3.86946108 C20.4102994,3.86946108 20.7305389,3.91952096 21.0304192,4.0194012 C21.3302994,4.11952096 21.6102994,4.25197605 21.8704192,4.41700599 C22.1302994,4.58203593 22.365509,4.7748503 22.5755689,4.99473054 C22.7853892,5.2148503 22.965509,5.44982036 23.1154491,5.69964072 L23.1154491,0.854371257 L23.8653892,0.854371257 L23.8653892,10.7547305 C23.8653892,11.0047904 23.9705389,11.1298204 24.1803593,11.1298204 L24.1803593,11.8047904 C24.120479,11.8146108 24.0704192,11.8220359 24.0304192,11.8273054 C23.9904192,11.8320958 23.9501796,11.8347305 23.9104192,11.8347305 C23.7104192,11.8347305 23.5403593,11.7573653 23.400479,11.6023952 C23.2603593,11.4474251 23.1904192,11.2847904 23.1904192,11.1147305 L23.1904192,10.2447904 C22.8704192,10.7647904 22.4426347,11.1798802 21.908024,11.4898204 C21.3729341,11.8 20.8153293,11.9547305 20.2354491,11.9547305 L20.2354491,11.9547305 Z" id="Fill-5" fill="#942E76"></path>
                <polyline id="Fill-6" fill="#942E76" points="35.1456287 1.1542515 35.1456287 11.8047904 33.0905389 11.8047904 33.0905389 7.25964072 28.2603593 7.25964072 28.2603593 11.8047904 26.1901796 11.8047904 26.1901796 1.1542515 28.2603593 1.1542515 28.2603593 5.45964072 33.0905389 5.45964072 33.0905389 1.1542515 35.1456287 1.1542515"></polyline>
                <path d="M42.7511377,7.21461078 C42.7008383,6.62467066 42.4833533,6.15233533 42.0984431,5.79712575 C41.7135329,5.44239521 41.2457485,5.26467066 40.6960479,5.26467066 C40.4258683,5.26467066 40.1731737,5.31209581 39.9384431,5.40694611 C39.7032335,5.50227545 39.4958084,5.63449102 39.3159281,5.8045509 C39.1358084,5.97461078 38.9882635,6.17964072 38.8732934,6.41964072 C38.7583234,6.65964072 38.6907784,6.9245509 38.6708982,7.21461078 L42.7511377,7.21461078 Z M40.7108982,11.9547305 C40.0809581,11.9547305 39.5108982,11.8471856 39.0007186,11.6323353 C38.4907784,11.4172455 38.0558084,11.1247904 37.6958084,10.7547305 C37.3358084,10.3846707 37.0584431,9.95497006 36.8632335,9.46467066 C36.6682635,8.9748503 36.5707784,8.45964072 36.5707784,7.91976048 C36.5707784,7.35976048 36.6656287,6.83209581 36.8558084,6.33700599 C37.0457485,5.84215569 37.3207186,5.40694611 37.6809581,5.03209581 C38.0409581,4.65700599 38.4780838,4.35952096 38.9932934,4.1394012 C39.5082635,3.91952096 40.0857485,3.80934132 40.725988,3.80934132 C41.3657485,3.80934132 41.9384431,3.91952096 42.4433533,4.1394012 C42.9482635,4.35952096 43.3784431,4.6548503 43.7336527,5.02467066 C44.0883832,5.39473054 44.3583234,5.82467066 44.5434731,6.31449102 C44.7283832,6.8045509 44.8210778,7.31473054 44.8210778,7.8445509 C44.8210778,7.9748503 44.8184431,8.09964072 44.8134132,8.21964072 C44.8083832,8.33964072 44.7959281,8.43976048 44.7760479,8.51952096 L38.7008383,8.51952096 C38.7307784,8.8297006 38.8057485,9.10467066 38.9257485,9.34467066 C39.0457485,9.58467066 39.2007186,9.7897006 39.3908982,9.95976048 C39.5808383,10.1298204 39.7959281,10.2596407 40.0359281,10.3497006 C40.2759281,10.4397605 40.5257485,10.4845509 40.7858683,10.4845509 C41.1856287,10.4845509 41.5633533,10.3870659 41.9185629,10.1923353 C42.2732934,9.99712575 42.5159281,9.73988024 42.645988,9.41964072 L44.371018,9.89964072 C44.0809581,10.4996407 43.6184431,10.9925749 42.9834731,11.3772455 C42.3482635,11.7621557 41.5906587,11.9547305 40.7108982,11.9547305 L40.7108982,11.9547305 Z" id="Fill-7" fill="#942E76"></path>
                <g id="Group-11" transform="translate(45.988024, 0.628743)">
                    <mask id="mask-4" fill="white">
                        <use xlink:href="#path-3"></use>
                    </mask>
                    <g id="Clip-9"></g>
                    <path d="M0.0481437126,0.225628743 L2.05820359,0.225628743 L2.05820359,8.6560479 C2.05820359,8.94610778 2.12814371,9.17101796 2.26802395,9.33101796 C2.40814371,9.49101796 2.60790419,9.57101796 2.86826347,9.57101796 C2.98826347,9.57101796 3.12071856,9.55113772 3.26562874,9.5108982 C3.41053892,9.47113772 3.54802395,9.42107784 3.67832335,9.36095808 L3.94826347,10.891018 C3.67832335,11.0210778 3.36311377,11.1211976 3.00311377,11.1911377 C2.64311377,11.2608383 2.31808383,11.2960479 2.02826347,11.2960479 C1.39808383,11.2960479 0.910658683,11.1286228 0.565748503,10.7935329 C0.220598802,10.4586826 0.0481437126,9.98107784 0.0481437126,9.36095808 L0.0481437126,0.225628743" id="Fill-8" fill="#942E76" mask="url(#mask-4)"></path>
                    <path d="M8.85317365,9.6160479 C9.15329341,9.6160479 9.43065868,9.55113772 9.6857485,9.42107784 C9.94083832,9.29101796 10.1583234,9.11616766 10.3382036,8.8960479 C10.5183234,8.67616766 10.6582036,8.42107784 10.7583234,8.13077844 C10.8582036,7.84095808 10.9082635,7.54083832 10.9082635,7.23113772 C10.9082635,6.90107784 10.8531737,6.59329341 10.7432335,6.30850299 C10.6330539,6.02347305 10.4807186,5.77580838 10.2857485,5.5657485 C10.0907784,5.35568862 9.8605988,5.1908982 9.59568862,5.0708982 C9.33053892,4.9508982 9.04311377,4.89077844 8.73317365,4.89077844 C8.54323353,4.89077844 8.34802395,4.92335329 8.14826347,4.98826347 C7.94802395,5.05365269 7.76311377,5.14562874 7.59305389,5.26562874 C7.42299401,5.38586826 7.27065868,5.52598802 7.13556886,5.6857485 C7.00071856,5.84598802 6.89796407,6.02107784 6.82826347,6.21101796 L6.82826347,8.0560479 C7.00814371,8.50610778 7.28311377,8.87856287 7.65317365,9.17341317 C8.02299401,9.46850299 8.42299401,9.6160479 8.85317365,9.6160479 Z M9.52838323,11.325988 C8.90802395,11.325988 8.36790419,11.188503 7.90826347,10.9135329 C7.44814371,10.6385629 7.08814371,10.2661078 6.82826347,9.79592814 L6.82826347,14.371018 L4.81796407,14.371018 L4.81796407,3.31592814 L6.57317365,3.31592814 L6.57317365,4.66586826 C6.86299401,4.20598802 7.23808383,3.84335329 7.69820359,3.57844311 C8.15808383,3.31353293 8.68814371,3.1805988 9.28814371,3.1805988 C9.81820359,3.1805988 10.3082635,3.28838323 10.7583234,3.50323353 C11.2083832,3.71832335 11.5956886,4.00838323 11.9207186,4.37341317 C12.2457485,4.73844311 12.5005988,5.16838323 12.6857485,5.66347305 C12.8708982,6.15832335 12.9633533,6.6811976 12.9633533,7.23113772 C12.9633533,7.80071856 12.8783234,8.3360479 12.7082635,8.83592814 C12.5382036,9.33628743 12.3008383,9.77125749 11.9956886,10.1410778 C11.6905389,10.5111377 11.3283832,10.8009581 10.9082635,11.011018 C10.4881437,11.2210778 10.028024,11.325988 9.52838323,11.325988 L9.52838323,11.325988 Z" id="Fill-10" fill="#942E76" mask="url(#mask-4)"></path>
                </g>
                <path d="M63.2862275,11.9547305 C62.6263473,11.9547305 61.9813174,11.8498204 61.3511377,11.6397605 C60.7211976,11.4297006 60.1813174,11.1298204 59.7312575,10.7398802 L60.4811976,9.47976048 C60.9611976,9.81988024 61.428503,10.0773653 61.8838323,10.2522156 C62.3386826,10.4273054 62.7913772,10.5147305 63.2414371,10.5147305 C63.6411976,10.5147305 63.9561677,10.4397605 64.1863473,10.2898204 C64.4162874,10.1396407 64.531497,9.92479042 64.531497,9.64479042 C64.531497,9.36502994 64.3964072,9.15976048 64.1262275,9.0297006 C63.8562874,8.89988024 63.4160479,8.7497006 62.8062275,8.57964072 C62.2962874,8.43976048 61.8613174,8.30467066 61.5010778,8.17461078 C61.1410778,8.04479042 60.851018,7.89724551 60.6311377,7.73197605 C60.4112575,7.56718563 60.251018,7.37724551 60.1511377,7.16191617 C60.051018,6.94730539 60.0011976,6.68958084 60.0011976,6.3897006 C60.0011976,5.9897006 60.0785629,5.6297006 60.2335329,5.30946108 C60.388503,4.9897006 60.6062275,4.71688623 60.8862275,4.49197605 C61.165988,4.26706587 61.4936527,4.09461078 61.8687425,3.97461078 C62.2435928,3.85461078 62.651018,3.79449102 63.0912575,3.79449102 C63.6811976,3.79449102 64.2337725,3.87952096 64.748982,4.04934132 C65.2637126,4.21964072 65.7362874,4.49461078 66.1664671,4.87473054 L65.3564072,6.08958084 C64.9561677,5.7897006 64.5688623,5.56982036 64.1937725,5.42946108 C63.8189222,5.28958084 63.445988,5.21964072 63.0764072,5.21964072 C62.7362874,5.21964072 62.4512575,5.28958084 62.2213174,5.42946108 C61.9911377,5.56982036 61.8761677,5.79473054 61.8761677,6.10443114 C61.8761677,6.24479042 61.9037126,6.35976048 61.9588024,6.44958084 C62.0136527,6.53964072 62.1013174,6.61988024 62.2213174,6.68958084 C62.3413174,6.75976048 62.4986826,6.82730539 62.6936527,6.89197605 C62.8888623,6.95736527 63.1312575,7.02467066 63.4213174,7.09461078 C63.9611976,7.23473054 64.4239521,7.37461078 64.8088623,7.51473054 C65.1937725,7.6548503 65.5087425,7.81461078 65.7537725,7.99473054 C65.9988024,8.17461078 66.1789222,8.38227545 66.2938922,8.61724551 C66.4088623,8.85221557 66.4665868,9.1348503 66.4665868,9.46467066 C66.4665868,10.2349701 66.1813174,10.8423952 65.611497,11.2871856 C65.0414371,11.7322156 64.2661078,11.9547305 63.2862275,11.9547305" id="Fill-12" fill="#942E76"></path>
            </g>
        </g>
    </g>
</svg>
