<?xml version="1.0" encoding="UTF-8"?>
<svg width="278px" height="60px" viewBox="0 0 278 60" version="1.1" xmlns="http://www.w3.org/2000/svg" xmlns:xlink="http://www.w3.org/1999/xlink">
    <!-- Generator: Sketch 46.2 (44496) - http://www.bohemiancoding.com/sketch -->
    <title>TedHelps_logo_liggande_nyCMYK</title>
    <desc>Created with Sketch.</desc>
    <defs>
        <polygon id="path-1" points="0.06 44.66 0.06 0.194 35.76 0.194 35.76 44.66"></polygon>
        <polygon id="path-3" points="54.122 59.94 0.201 59.94 0.201 0.942 54.122 0.942"></polygon>
    </defs>
    <g id="Page-1" stroke="none" stroke-width="1" fill="none" fill-rule="evenodd">
        <g id="TedHelps_logo_liggande_nyCMYK">
            <g id="Group-3" transform="translate(0.000000, 2.000000)">
                <mask id="mask-2" fill="white">
                    <use xlink:href="#path-1"></use>
                </mask>
                <g id="Clip-2"></g>
                <polyline id="Fill-1" fill="#87255A" mask="url(#mask-2)" points="35.76 3.075 19.477 3.075 19.477 44.66 16.283 44.66 16.283 3.075 0 3.075 0 0.194 35.76 0.194 35.76 3.075"></polyline>
            </g>
            <path d="M61.186,29.124 C61.06,27.204 60.632,25.451 59.902,23.863 C59.171,22.277 58.232,20.91 57.084,19.762 C55.935,18.613 54.61,17.717 53.107,17.068 C51.604,16.422 49.996,16.098 48.284,16.098 C46.572,16.098 44.966,16.422 43.462,17.068 C41.959,17.717 40.634,18.613 39.486,19.762 C38.337,20.91 37.419,22.288 36.73,23.895 C36.041,25.503 35.634,27.245 35.509,29.124 L61.186,29.124 Z M48.41,47.286 C46.113,47.286 43.984,46.837 42.022,45.94 C40.059,45.042 38.358,43.811 36.918,42.245 C35.477,40.679 34.35,38.874 33.536,36.827 C32.722,34.782 32.315,32.591 32.315,30.252 C32.315,27.956 32.722,25.795 33.536,23.77 C34.35,21.745 35.467,19.971 36.886,18.446 C38.305,16.923 39.987,15.722 41.928,14.846 C43.869,13.969 45.967,13.53 48.222,13.53 C50.518,13.53 52.647,13.98 54.61,14.877 C56.572,15.775 58.263,16.985 59.683,18.509 C61.102,20.033 62.208,21.808 63.002,23.832 C63.795,25.858 64.192,27.997 64.192,30.252 C64.192,30.461 64.192,30.722 64.192,31.034 C64.192,31.348 64.17,31.546 64.129,31.63 L35.571,31.63 C35.697,33.508 36.135,35.252 36.886,36.858 C37.638,38.467 38.587,39.856 39.736,41.023 C40.884,42.192 42.21,43.111 43.713,43.779 C45.216,44.447 46.822,44.781 48.535,44.781 C49.662,44.781 50.768,44.625 51.854,44.312 C52.94,43.998 53.952,43.57 54.892,43.027 C55.831,42.485 56.666,41.828 57.397,41.055 C58.127,40.282 58.701,39.438 59.119,38.519 L61.875,39.27 C61.415,40.44 60.737,41.515 59.839,42.495 C58.941,43.477 57.898,44.322 56.708,45.031 C55.518,45.742 54.213,46.295 52.794,46.691 C51.374,47.088 49.913,47.286 48.41,47.286 L48.41,47.286 Z" id="Fill-4" fill="#87255A"></path>
            <path d="M85.046,44.468 C86.174,44.468 87.384,44.239 88.678,43.779 C89.972,43.32 91.173,42.683 92.28,41.869 C93.385,41.055 94.336,40.126 95.129,39.082 C95.922,38.039 96.382,36.911 96.507,35.7 L96.507,24.991 C96.047,23.822 95.389,22.705 94.534,21.641 C93.678,20.576 92.707,19.658 91.622,18.885 C90.536,18.112 89.367,17.497 88.115,17.037 C86.863,16.578 85.651,16.349 84.483,16.349 C82.604,16.349 80.891,16.756 79.347,17.569 C77.802,18.384 76.487,19.448 75.402,20.764 C74.316,22.079 73.481,23.582 72.897,25.273 C72.311,26.964 72.02,28.707 72.02,30.502 C72.02,32.381 72.354,34.156 73.022,35.825 C73.689,37.496 74.619,38.979 75.809,40.272 C76.999,41.566 78.377,42.589 79.942,43.341 C81.508,44.092 83.209,44.468 85.046,44.468 Z M84.483,47.286 C82.228,47.286 80.14,46.816 78.22,45.877 C76.299,44.938 74.639,43.686 73.241,42.119 C71.842,40.554 70.757,38.759 69.985,36.733 C69.212,34.709 68.826,32.611 68.826,30.44 C68.826,28.185 69.201,26.035 69.953,23.989 C70.705,21.943 71.748,20.148 73.085,18.603 C74.42,17.059 75.997,15.827 77.813,14.908 C79.629,13.99 81.622,13.53 83.794,13.53 C85.213,13.53 86.55,13.739 87.802,14.156 C89.054,14.574 90.223,15.127 91.309,15.816 C92.394,16.505 93.376,17.31 94.253,18.228 C95.129,19.147 95.881,20.128 96.507,21.171 L96.507,0.942 L99.638,0.942 L99.638,42.276 C99.638,43.32 100.077,43.842 100.953,43.842 L100.953,46.66 C100.703,46.701 100.494,46.732 100.327,46.754 C100.16,46.774 99.992,46.785 99.826,46.785 C98.991,46.785 98.281,46.462 97.697,45.815 C97.112,45.168 96.82,44.489 96.82,43.779 L96.82,40.147 C95.484,42.318 93.698,44.051 91.466,45.345 C89.232,46.64 86.904,47.286 84.483,47.286 L84.483,47.286 Z" id="Fill-5" fill="#87255A"></path>
            <polyline id="Fill-6" fill="#87255A" points="146.733 2.194 146.733 46.66 138.153 46.66 138.153 27.684 117.987 27.684 117.987 46.66 109.344 46.66 109.344 2.194 117.987 2.194 117.987 20.169 138.153 20.169 138.153 2.194 146.733 2.194"></polyline>
            <path d="M178.486,27.496 C178.276,25.033 177.368,23.061 175.761,21.578 C174.154,20.097 172.201,19.355 169.906,19.355 C168.778,19.355 167.723,19.553 166.743,19.949 C165.761,20.347 164.895,20.899 164.144,21.609 C163.392,22.319 162.776,23.175 162.296,24.177 C161.816,25.179 161.534,26.285 161.451,27.496 L178.486,27.496 Z M169.968,47.286 C167.338,47.286 164.958,46.837 162.828,45.94 C160.699,45.042 158.883,43.821 157.38,42.276 C155.877,40.731 154.719,38.937 153.904,36.89 C153.09,34.845 152.683,32.694 152.683,30.44 C152.683,28.102 153.079,25.899 153.873,23.832 C154.666,21.766 155.814,19.949 157.318,18.384 C158.821,16.818 160.646,15.576 162.797,14.657 C164.947,13.739 167.358,13.279 170.031,13.279 C172.702,13.279 175.093,13.739 177.201,14.657 C179.309,15.576 181.105,16.809 182.588,18.353 C184.069,19.898 185.196,21.693 185.969,23.738 C186.741,25.784 187.128,27.914 187.128,30.126 C187.128,30.67 187.117,31.191 187.096,31.692 C187.075,32.193 187.023,32.611 186.94,32.944 L161.576,32.944 C161.701,34.239 162.014,35.387 162.515,36.389 C163.016,37.391 163.663,38.247 164.457,38.957 C165.25,39.667 166.148,40.209 167.15,40.585 C168.152,40.961 169.195,41.148 170.281,41.148 C171.95,41.148 173.527,40.741 175.01,39.928 C176.491,39.113 177.504,38.039 178.047,36.702 L185.249,38.706 C184.038,41.211 182.107,43.269 179.456,44.875 C176.804,46.482 173.641,47.286 169.968,47.286 L169.968,47.286 Z" id="Fill-7" fill="#87255A"></path>
            <g id="Group-11" transform="translate(192.000000, 0.000000)">
                <mask id="mask-4" fill="white">
                    <use xlink:href="#path-3"></use>
                </mask>
                <g id="Clip-9"></g>
                <path d="M0.201,0.942 L8.593,0.942 L8.593,36.139 C8.593,37.35 8.885,38.289 9.469,38.957 C10.054,39.625 10.888,39.959 11.975,39.959 C12.476,39.959 13.029,39.876 13.634,39.708 C14.239,39.542 14.813,39.333 15.357,39.082 L16.484,45.47 C15.357,46.013 14.041,46.431 12.538,46.723 C11.035,47.014 9.678,47.161 8.468,47.161 C5.837,47.161 3.802,46.462 2.362,45.063 C0.921,43.665 0.201,41.671 0.201,39.082 L0.201,0.942" id="Fill-8" fill="#87255A" mask="url(#mask-4)"></path>
                <path d="M36.962,40.147 C38.215,40.147 39.373,39.876 40.438,39.333 C41.503,38.79 42.411,38.06 43.162,37.141 C43.914,36.223 44.498,35.158 44.916,33.946 C45.333,32.736 45.542,31.483 45.542,30.19 C45.542,28.812 45.312,27.527 44.853,26.338 C44.393,25.148 43.757,24.114 42.943,23.237 C42.129,22.36 41.168,21.672 40.062,21.171 C38.955,20.67 37.755,20.419 36.461,20.419 C35.668,20.419 34.853,20.555 34.019,20.826 C33.183,21.099 32.411,21.483 31.701,21.984 C30.991,22.486 30.355,23.071 29.791,23.738 C29.228,24.407 28.799,25.138 28.508,25.931 L28.508,33.634 C29.259,35.513 30.407,37.068 31.952,38.299 C33.496,39.531 35.166,40.147 36.962,40.147 Z M39.781,47.286 C37.191,47.286 34.936,46.712 33.017,45.564 C31.096,44.416 29.593,42.861 28.508,40.898 L28.508,59.999 L20.115,59.999 L20.115,13.844 L27.443,13.844 L27.443,19.48 C28.653,17.56 30.219,16.046 32.14,14.94 C34.06,13.834 36.273,13.279 38.778,13.279 C40.991,13.279 43.037,13.729 44.916,14.626 C46.795,15.524 48.412,16.735 49.769,18.259 C51.126,19.783 52.19,21.578 52.963,23.645 C53.736,25.711 54.122,27.894 54.122,30.19 C54.122,32.568 53.767,34.803 53.057,36.89 C52.347,38.979 51.356,40.795 50.082,42.339 C48.808,43.884 47.296,45.094 45.542,45.971 C43.788,46.848 41.867,47.286 39.781,47.286 L39.781,47.286 Z" id="Fill-10" fill="#87255A" mask="url(#mask-4)"></path>
            </g>
            <path d="M264.22,47.286 C261.465,47.286 258.772,46.848 256.141,45.971 C253.511,45.094 251.257,43.842 249.378,42.214 L252.509,36.953 C254.513,38.373 256.464,39.448 258.365,40.178 C260.264,40.909 262.154,41.274 264.033,41.274 C265.702,41.274 267.017,40.961 267.978,40.335 C268.938,39.708 269.419,38.811 269.419,37.642 C269.419,36.474 268.855,35.617 267.727,35.074 C266.6,34.532 264.762,33.905 262.216,33.195 C260.087,32.611 258.271,32.047 256.767,31.504 C255.264,30.962 254.053,30.346 253.135,29.656 C252.217,28.968 251.548,28.175 251.131,27.276 C250.713,26.38 250.505,25.304 250.505,24.052 C250.505,22.382 250.828,20.879 251.475,19.542 C252.122,18.207 253.031,17.068 254.2,16.129 C255.368,15.19 256.736,14.47 258.302,13.969 C259.867,13.468 261.568,13.217 263.406,13.217 C265.869,13.217 268.176,13.572 270.327,14.281 C272.476,14.992 274.449,16.14 276.245,17.727 L272.863,22.799 C271.192,21.547 269.575,20.629 268.009,20.043 C266.444,19.459 264.887,19.167 263.344,19.167 C261.924,19.167 260.734,19.459 259.774,20.043 C258.813,20.629 258.333,21.568 258.333,22.861 C258.333,23.447 258.448,23.927 258.678,24.302 C258.907,24.678 259.273,25.013 259.774,25.304 C260.275,25.597 260.932,25.879 261.746,26.149 C262.561,26.422 263.573,26.703 264.784,26.995 C267.038,27.58 268.97,28.164 270.577,28.749 C272.184,29.334 273.499,30.001 274.522,30.753 C275.545,31.504 276.297,32.371 276.777,33.352 C277.257,34.333 277.498,35.513 277.498,36.89 C277.498,40.106 276.307,42.642 273.928,44.499 C271.548,46.357 268.311,47.286 264.22,47.286" id="Fill-12" fill="#87255A"></path>
        </g>
    </g>
</svg>