<?xml version="1.0" encoding="UTF-8"?>
<svg width="385px" height="167px" viewBox="0 0 385 167" version="1.1" xmlns="http://www.w3.org/2000/svg" xmlns:xlink="http://www.w3.org/1999/xlink">
    <!-- Generator: Sketch 45.2 (43514) - http://www.bohemiancoding.com/sketch -->
    <title>TedHelps_logo_liggande</title>
    <desc>Created with Sketch.</desc>
    <defs>
        <polygon id="path-1" points="0.06 44.66 0.06 0.194 35.76 0.194 35.76 44.66"></polygon>
        <polygon id="path-3" points="54.122 59.94 0.201 59.94 0.201 0.942 54.122 0.942"></polygon>
        <polygon id="path-5" points="134.005 0.33 134.005 35.7468349 0.826 35.7468349 0.826 0.33 134.005 0.33"></polygon>
    </defs>
    <g id="Page-1" stroke="none" stroke-width="1" fill="none" fill-rule="evenodd">
        <g id="TedHelps_logo_liggande">
            <g id="Group-3" transform="translate(0.000000, 109.000000)">
                <mask id="mask-2" fill="white">
                    <use xlink:href="#path-1"></use>
                </mask>
                <g id="Clip-2"></g>
                <polyline id="Fill-1" fill="#942E76" mask="url(#mask-2)" points="35.76 3.075 19.477 3.075 19.477 44.66 16.283 44.66 16.283 3.075 0 3.075 0 0.194 35.76 0.194 35.76 3.075"></polyline>
            </g>
            <path d="M61.186,136.124 C61.06,134.204 60.632,132.451 59.902,130.863 C59.171,129.277 58.232,127.91 57.084,126.762 C55.935,125.613 54.61,124.717 53.107,124.068 C51.604,123.422 49.996,123.098 48.284,123.098 C46.572,123.098 44.966,123.422 43.462,124.068 C41.959,124.717 40.634,125.613 39.486,126.762 C38.337,127.91 37.419,129.288 36.73,130.895 C36.041,132.503 35.634,134.245 35.509,136.124 L61.186,136.124 Z M48.41,154.286 C46.113,154.286 43.984,153.837 42.022,152.94 C40.059,152.042 38.358,150.811 36.918,149.245 C35.477,147.679 34.35,145.874 33.536,143.827 C32.722,141.782 32.315,139.591 32.315,137.252 C32.315,134.956 32.722,132.795 33.536,130.77 C34.35,128.745 35.467,126.971 36.886,125.446 C38.305,123.923 39.987,122.722 41.928,121.846 C43.869,120.969 45.967,120.53 48.222,120.53 C50.518,120.53 52.647,120.98 54.61,121.877 C56.572,122.775 58.263,123.985 59.683,125.509 C61.102,127.033 62.208,128.808 63.002,130.832 C63.795,132.858 64.192,134.997 64.192,137.252 C64.192,137.461 64.192,137.722 64.192,138.034 C64.192,138.348 64.17,138.546 64.129,138.63 L35.571,138.63 C35.697,140.508 36.135,142.252 36.886,143.858 C37.638,145.467 38.587,146.856 39.736,148.023 C40.884,149.192 42.21,150.111 43.713,150.779 C45.216,151.447 46.822,151.781 48.535,151.781 C49.662,151.781 50.768,151.625 51.854,151.312 C52.94,150.998 53.952,150.57 54.892,150.027 C55.831,149.485 56.666,148.828 57.397,148.055 C58.127,147.282 58.701,146.438 59.119,145.519 L61.875,146.27 C61.415,147.44 60.737,148.515 59.839,149.495 C58.941,150.477 57.898,151.322 56.708,152.031 C55.518,152.742 54.213,153.295 52.794,153.691 C51.374,154.088 49.913,154.286 48.41,154.286 L48.41,154.286 Z" id="Fill-4" fill="#942E76"></path>
            <path d="M85.046,151.468 C86.174,151.468 87.384,151.239 88.678,150.779 C89.972,150.32 91.173,149.683 92.28,148.869 C93.385,148.055 94.336,147.126 95.129,146.082 C95.922,145.039 96.382,143.911 96.507,142.7 L96.507,131.991 C96.047,130.822 95.389,129.705 94.534,128.641 C93.678,127.576 92.707,126.658 91.622,125.885 C90.536,125.112 89.367,124.497 88.115,124.037 C86.863,123.578 85.651,123.349 84.483,123.349 C82.604,123.349 80.891,123.756 79.347,124.569 C77.802,125.384 76.487,126.448 75.402,127.764 C74.316,129.079 73.481,130.582 72.897,132.273 C72.311,133.964 72.02,135.707 72.02,137.502 C72.02,139.381 72.354,141.156 73.022,142.825 C73.689,144.496 74.619,145.979 75.809,147.272 C76.999,148.566 78.377,149.589 79.942,150.341 C81.508,151.092 83.209,151.468 85.046,151.468 Z M84.483,154.286 C82.228,154.286 80.14,153.816 78.22,152.877 C76.299,151.938 74.639,150.686 73.241,149.119 C71.842,147.554 70.757,145.759 69.985,143.733 C69.212,141.709 68.826,139.611 68.826,137.44 C68.826,135.185 69.201,133.035 69.953,130.989 C70.705,128.943 71.748,127.148 73.085,125.603 C74.42,124.059 75.997,122.827 77.813,121.908 C79.629,120.99 81.622,120.53 83.794,120.53 C85.213,120.53 86.55,120.739 87.802,121.156 C89.054,121.574 90.223,122.127 91.309,122.816 C92.394,123.505 93.376,124.31 94.253,125.228 C95.129,126.147 95.881,127.128 96.507,128.171 L96.507,107.942 L99.638,107.942 L99.638,149.276 C99.638,150.32 100.077,150.842 100.953,150.842 L100.953,153.66 C100.703,153.701 100.494,153.732 100.327,153.754 C100.16,153.774 99.992,153.785 99.826,153.785 C98.991,153.785 98.281,153.462 97.697,152.815 C97.112,152.168 96.82,151.489 96.82,150.779 L96.82,147.147 C95.484,149.318 93.698,151.051 91.466,152.345 C89.232,153.64 86.904,154.286 84.483,154.286 L84.483,154.286 Z" id="Fill-5" fill="#942E76"></path>
            <polyline id="Fill-6" fill="#942E76" points="146.733 109.194 146.733 153.66 138.153 153.66 138.153 134.684 117.987 134.684 117.987 153.66 109.344 153.66 109.344 109.194 117.987 109.194 117.987 127.169 138.153 127.169 138.153 109.194 146.733 109.194"></polyline>
            <path d="M178.486,134.496 C178.276,132.033 177.368,130.061 175.761,128.578 C174.154,127.097 172.201,126.355 169.906,126.355 C168.778,126.355 167.723,126.553 166.743,126.949 C165.761,127.347 164.895,127.899 164.144,128.609 C163.392,129.319 162.776,130.175 162.296,131.177 C161.816,132.179 161.534,133.285 161.451,134.496 L178.486,134.496 Z M169.968,154.286 C167.338,154.286 164.958,153.837 162.828,152.94 C160.699,152.042 158.883,150.821 157.38,149.276 C155.877,147.731 154.719,145.937 153.904,143.89 C153.09,141.845 152.683,139.694 152.683,137.44 C152.683,135.102 153.079,132.899 153.873,130.832 C154.666,128.766 155.814,126.949 157.318,125.384 C158.821,123.818 160.646,122.576 162.797,121.657 C164.947,120.739 167.358,120.279 170.031,120.279 C172.702,120.279 175.093,120.739 177.201,121.657 C179.309,122.576 181.105,123.809 182.588,125.353 C184.069,126.898 185.196,128.693 185.969,130.738 C186.741,132.784 187.128,134.914 187.128,137.126 C187.128,137.67 187.117,138.191 187.096,138.692 C187.075,139.193 187.023,139.611 186.94,139.944 L161.576,139.944 C161.701,141.239 162.014,142.387 162.515,143.389 C163.016,144.391 163.663,145.247 164.457,145.957 C165.25,146.667 166.148,147.209 167.15,147.585 C168.152,147.961 169.195,148.148 170.281,148.148 C171.95,148.148 173.527,147.741 175.01,146.928 C176.491,146.113 177.504,145.039 178.047,143.702 L185.249,145.706 C184.038,148.211 182.107,150.269 179.456,151.875 C176.804,153.482 173.641,154.286 169.968,154.286 L169.968,154.286 Z" id="Fill-7" fill="#942E76"></path>
            <g id="Group-11" transform="translate(192.000000, 107.000000)">
                <mask id="mask-4" fill="white">
                    <use xlink:href="#path-3"></use>
                </mask>
                <g id="Clip-9"></g>
                <path d="M0.201,0.942 L8.593,0.942 L8.593,36.139 C8.593,37.35 8.885,38.289 9.469,38.957 C10.054,39.625 10.888,39.959 11.975,39.959 C12.476,39.959 13.029,39.876 13.634,39.708 C14.239,39.542 14.813,39.333 15.357,39.082 L16.484,45.47 C15.357,46.013 14.041,46.431 12.538,46.723 C11.035,47.014 9.678,47.161 8.468,47.161 C5.837,47.161 3.802,46.462 2.362,45.063 C0.921,43.665 0.201,41.671 0.201,39.082 L0.201,0.942" id="Fill-8" fill="#942E76" mask="url(#mask-4)"></path>
                <path d="M36.962,40.147 C38.215,40.147 39.373,39.876 40.438,39.333 C41.503,38.79 42.411,38.06 43.162,37.141 C43.914,36.223 44.498,35.158 44.916,33.946 C45.333,32.736 45.542,31.483 45.542,30.19 C45.542,28.812 45.312,27.527 44.853,26.338 C44.393,25.148 43.757,24.114 42.943,23.237 C42.129,22.36 41.168,21.672 40.062,21.171 C38.955,20.67 37.755,20.419 36.461,20.419 C35.668,20.419 34.853,20.555 34.019,20.826 C33.183,21.099 32.411,21.483 31.701,21.984 C30.991,22.486 30.355,23.071 29.791,23.738 C29.228,24.407 28.799,25.138 28.508,25.931 L28.508,33.634 C29.259,35.513 30.407,37.068 31.952,38.299 C33.496,39.531 35.166,40.147 36.962,40.147 Z M39.781,47.286 C37.191,47.286 34.936,46.712 33.017,45.564 C31.096,44.416 29.593,42.861 28.508,40.898 L28.508,59.999 L20.115,59.999 L20.115,13.844 L27.443,13.844 L27.443,19.48 C28.653,17.56 30.219,16.046 32.14,14.94 C34.06,13.834 36.273,13.279 38.778,13.279 C40.991,13.279 43.037,13.729 44.916,14.626 C46.795,15.524 48.412,16.735 49.769,18.259 C51.126,19.783 52.19,21.578 52.963,23.645 C53.736,25.711 54.122,27.894 54.122,30.19 C54.122,32.568 53.767,34.803 53.057,36.89 C52.347,38.979 51.356,40.795 50.082,42.339 C48.808,43.884 47.296,45.094 45.542,45.971 C43.788,46.848 41.867,47.286 39.781,47.286 L39.781,47.286 Z" id="Fill-10" fill="#942E76" mask="url(#mask-4)"></path>
            </g>
            <path d="M264.22,154.286 C261.465,154.286 258.772,153.848 256.141,152.971 C253.511,152.094 251.257,150.842 249.378,149.214 L252.509,143.953 C254.513,145.373 256.464,146.448 258.365,147.178 C260.264,147.909 262.154,148.274 264.033,148.274 C265.702,148.274 267.017,147.961 267.978,147.335 C268.938,146.708 269.419,145.811 269.419,144.642 C269.419,143.474 268.855,142.617 267.727,142.074 C266.6,141.532 264.762,140.905 262.216,140.195 C260.087,139.611 258.271,139.047 256.767,138.504 C255.264,137.962 254.053,137.346 253.135,136.656 C252.217,135.968 251.548,135.175 251.131,134.276 C250.713,133.38 250.505,132.304 250.505,131.052 C250.505,129.382 250.828,127.879 251.475,126.542 C252.122,125.207 253.031,124.068 254.2,123.129 C255.368,122.19 256.736,121.47 258.302,120.969 C259.867,120.468 261.568,120.217 263.406,120.217 C265.869,120.217 268.176,120.572 270.327,121.281 C272.476,121.992 274.449,123.14 276.245,124.727 L272.863,129.799 C271.192,128.547 269.575,127.629 268.009,127.043 C266.444,126.459 264.887,126.167 263.344,126.167 C261.924,126.167 260.734,126.459 259.774,127.043 C258.813,127.629 258.333,128.568 258.333,129.861 C258.333,130.447 258.448,130.927 258.678,131.302 C258.907,131.678 259.273,132.013 259.774,132.304 C260.275,132.597 260.932,132.879 261.746,133.149 C262.561,133.422 263.573,133.703 264.784,133.995 C267.038,134.58 268.97,135.164 270.577,135.749 C272.184,136.334 273.499,137.001 274.522,137.753 C275.545,138.504 276.297,139.371 276.777,140.352 C277.257,141.333 277.498,142.513 277.498,143.89 C277.498,147.106 276.307,149.642 273.928,151.499 C271.548,153.357 268.311,154.286 264.22,154.286" id="Fill-12" fill="#942E76"></path>
            <path d="M290.317,153.081 C295.838,149.197 299.44,142.556 299.44,125.834 C299.44,105.204 286.709,97.254 286.709,97.254 C294.209,93.919 299.44,86.392 299.44,77.647 C299.44,76.83 299.391,76.025 299.303,75.235 C302.795,77.703 307.05,79.146 311.641,79.146 C316.234,79.146 320.489,77.703 323.981,75.235 C323.892,76.025 323.844,76.83 323.844,77.647 C323.844,86.392 329.075,93.919 336.582,97.254 C336.582,97.254 323.844,107.158 323.844,125.834 C323.844,140.818 327.453,149.197 332.973,153.081 L290.317,153.081" id="Fill-13" fill="#942E76"></path>
            <path d="M311.778,65.915 C307.75,66.014 306.666,61.355 306.654,57.055 C306.642,52.754 311.099,45.051 311.099,45.051 C311.099,45.051 315.841,51.694 316.48,56.873 C317.14,62.224 315.743,65.818 311.778,65.915" id="Fill-14" fill="#942E76"></path>
            <path d="M298.137,39.643 C294.629,41.624 291.48,38.023 289.447,34.233 C287.414,30.443 287.724,21.549 287.724,21.549 C287.724,21.549 295.034,25.182 298.034,29.452 C301.133,33.863 301.59,37.692 298.137,39.643" id="Fill-15" fill="#942E76"></path>
            <g id="Group-19" transform="translate(304.000000, 0.000000)" fill="#942E76">
                <path d="M22.09,39.718 C18.423,38.05 19.478,33.385 21.343,29.51 C23.208,25.635 30.579,20.646 30.579,20.646 C30.579,20.646 31.948,28.692 30.264,33.632 C28.525,38.734 25.701,41.359 22.09,39.718" id="Fill-16"></path>
                <path d="M7.813,31.864 C1.732,31.996 0.113,24.959 0.113,18.465 C0.113,11.971 6.875,0.357 6.875,0.357 C6.875,0.357 14.007,10.408 14.951,18.23 C15.926,26.313 13.801,31.734 7.813,31.864" id="Fill-18"></path>
            </g>
            <path d="M275.483,97.119 C275.615,103.2 268.578,104.819 262.084,104.819 C255.59,104.819 243.976,98.058 243.976,98.058 C243.976,98.058 254.027,90.926 261.849,89.981 C269.931,89.007 275.353,91.132 275.483,97.119" id="Fill-20" fill="#942E76"></path>
            <path d="M290.797,63.706 C285.601,66.87 280.672,61.595 277.414,55.977 C274.157,50.358 274.18,36.92 274.18,36.92 C274.18,36.92 285.392,42.038 290.133,48.331 C295.03,54.834 295.911,60.59 290.797,63.706" id="Fill-21" fill="#942E76"></path>
            <path d="M329.203,62.814 C324.604,58.832 328.126,52.527 332.483,47.712 C336.84,42.896 349.645,38.821 349.645,38.821 C349.645,38.821 348.19,51.061 343.642,57.494 C338.943,64.141 333.729,66.735 329.203,62.814" id="Fill-22" fill="#942E76"></path>
            <path d="M348.868,97.455 C348.736,91.374 355.773,89.755 362.267,89.755 C368.762,89.755 380.376,96.517 380.376,96.517 C380.376,96.517 370.324,103.648 362.502,104.593 C354.42,105.567 348.999,103.442 348.868,97.455" id="Fill-23" fill="#942E76"></path>
            <path d="M286.703,83.521 C284.477,87.08 279.805,85.351 276.058,82.894 C272.312,80.436 268.171,72.141 268.171,72.141 C268.171,72.141 276.669,71.829 281.538,74.245 C286.57,76.74 288.893,80.018 286.703,83.521" id="Fill-24" fill="#942E76"></path>
            <path d="M259.834,80.247 C258.867,84.331 253.886,84.192 249.55,83.064 C245.214,81.938 238.632,75.408 238.632,75.408 C238.632,75.408 246.581,72.39 251.968,73.116 C257.534,73.867 260.785,76.227 259.834,80.247" id="Fill-25" fill="#942E76"></path>
            <g id="Group-29" transform="translate(251.000000, 48.000000)">
                <mask id="mask-6" fill="white">
                    <use xlink:href="#path-5"></use>
                </mask>
                <g id="Clip-27"></g>
                <path d="M18.121,13.515 C15.55,16.832 11.074,14.643 7.594,11.821 C4.113,9 0.826,0.33 0.826,0.33 C0.826,0.33 9.312,0.874 13.914,3.767 C18.67,6.755 20.652,10.249 18.121,13.515" id="Fill-26" fill="#942E76" mask="url(#mask-6)"></path>
                <path d="M112.803,32.247 C113.77,36.331 118.751,36.192 123.087,35.064 C127.424,33.938 134.006,27.408 134.006,27.408 C134.006,27.408 126.056,24.39 120.669,25.116 C115.103,25.867 111.851,28.227 112.803,32.247" id="Fill-28" fill="#942E76" mask="url(#mask-6)"></path>
            </g>
            <path d="M354.516,61.515 C357.088,64.832 361.562,62.643 365.044,59.821 C368.524,57 371.811,48.33 371.811,48.33 C371.811,48.33 363.325,48.874 358.722,51.767 C353.968,54.755 351.985,58.249 354.516,61.515" id="Fill-30" fill="#942E76"></path>
            <path d="M335.756,83.673 C333.12,80.406 336.282,76.556 339.829,73.819 C343.376,71.082 352.569,69.881 352.569,69.881 C352.569,69.881 350.085,78.013 346.211,81.825 C342.207,85.764 338.349,86.889 335.756,83.673" id="Fill-31" fill="#942E76"></path>
        </g>
    </g>
</svg>