<?xml version="1.0" encoding="UTF-8"?>
<svg width="277px" height="230px" viewBox="0 0 277 230" version="1.1" xmlns="http://www.w3.org/2000/svg" xmlns:xlink="http://www.w3.org/1999/xlink">
    <!-- Generator: Sketch 46.2 (44496) - http://www.bohemiancoding.com/sketch -->
    <title>TedHelps_logo_neg_nyCMYK</title>
    <desc>Created with Sketch.</desc>
    <defs>
        <polygon id="path-1" points="54.77 59.94 0.84 59.94 0.84 0.98 54.77 0.98 54.77 59.94"></polygon>
    </defs>
    <g id="Page-1" stroke="none" stroke-width="1" fill="none" fill-rule="evenodd">
        <g id="TedHelps_logo_neg_nyCMYK">
            <polyline id="Fill-3" fill="#FFFFFE" points="0 172.23 0 175.11 15.93 175.11 15.93 216.7 19.12 216.7 19.12 175.11 35.4 175.11 35.4 172.23 0 172.23"></polyline>
            <path d="M35.15,199.16 C35.28,197.28 35.68,195.54 36.37,193.93 C37.06,192.33 37.98,190.95 39.13,189.8 C40.28,188.65 41.6,187.75 43.11,187.11 C44.61,186.46 46.22,186.14 47.93,186.14 C49.64,186.14 51.25,186.46 52.75,187.11 C54.25,187.75 55.58,188.65 56.73,189.8 C57.88,190.95 58.82,192.31 59.55,193.9 C60.28,195.49 60.7,197.24 60.83,199.16 L35.15,199.16 Z M62.65,193.87 C61.85,191.85 60.75,190.07 59.33,188.55 C57.91,187.02 56.22,185.81 54.25,184.91 C52.29,184.02 50.16,183.57 47.87,183.57 C45.61,183.57 43.51,184.01 41.57,184.88 C39.63,185.76 37.95,186.96 36.53,188.48 C35.11,190.01 33.99,191.78 33.18,193.81 C32.37,195.83 31.96,197.99 31.96,200.29 C31.96,202.63 32.37,204.82 33.18,206.87 C33.99,208.91 35.12,210.72 36.56,212.28 C38,213.85 39.7,215.08 41.67,215.98 C43.63,216.87 45.76,217.32 48.05,217.32 C49.56,217.32 51.02,217.13 52.44,216.73 C53.86,216.33 55.16,215.78 56.35,215.07 C57.54,214.36 58.59,213.51 59.48,212.53 C60.38,211.55 61.06,210.48 61.52,209.31 L58.76,208.56 C58.35,209.48 57.77,210.32 57.04,211.09 C56.31,211.87 55.48,212.52 54.54,213.06 C53.6,213.61 52.58,214.04 51.5,214.35 C50.41,214.66 49.31,214.82 48.18,214.82 C46.47,214.82 44.86,214.48 43.36,213.82 C41.85,213.15 40.53,212.23 39.38,211.06 C38.23,209.89 37.28,208.5 36.53,206.9 C35.78,205.29 35.34,203.55 35.21,201.67 L63.77,201.67 C63.81,201.58 63.84,201.39 63.84,201.07 L63.84,200.29 C63.84,198.03 63.44,195.9 62.65,193.87 L62.65,193.87 Z" id="Fill-4" fill="#FFFFFE"></path>
            <path d="M96.15,205.74 C96.03,206.95 95.57,208.08 94.77,209.12 C93.98,210.16 93.03,211.09 91.92,211.91 C90.82,212.72 89.62,213.36 88.32,213.82 C87.03,214.28 85.82,214.51 84.69,214.51 C82.85,214.51 81.15,214.13 79.59,213.38 C78.02,212.63 76.64,211.6 75.45,210.31 C74.26,209.02 73.33,207.53 72.67,205.86 C72,204.19 71.66,202.42 71.66,200.54 C71.66,198.75 71.96,197 72.54,195.31 C73.12,193.62 73.96,192.12 75.05,190.8 C76.13,189.49 77.45,188.42 78.99,187.61 C80.54,186.79 82.25,186.39 84.13,186.39 C85.29,186.39 86.51,186.62 87.76,187.07 C89.01,187.53 90.18,188.15 91.27,188.92 C92.35,189.7 93.32,190.61 94.18,191.68 C95.03,192.74 95.69,193.86 96.15,195.03 L96.15,205.74 Z M99.28,212.31 L99.28,170.98 L96.15,170.98 L96.15,191.21 C95.52,190.17 94.77,189.18 93.9,188.27 C93.02,187.35 92.04,186.54 90.95,185.85 C89.87,185.16 88.7,184.61 87.45,184.19 C86.19,183.78 84.86,183.57 83.44,183.57 C81.27,183.57 79.27,184.03 77.46,184.95 C75.64,185.86 74.06,187.1 72.73,188.64 C71.39,190.19 70.35,191.98 69.6,194.03 C68.85,196.07 68.47,198.22 68.47,200.48 C68.47,202.65 68.86,204.75 69.63,206.77 C70.4,208.8 71.49,210.59 72.88,212.16 C74.28,213.72 75.94,214.98 77.86,215.91 C79.78,216.85 81.87,217.32 84.13,217.32 C86.55,217.32 88.88,216.68 91.11,215.38 C93.34,214.09 95.13,212.36 96.46,210.18 L96.46,213.82 C96.46,214.53 96.76,215.21 97.34,215.85 C97.92,216.5 98.63,216.82 99.47,216.82 C99.64,216.82 99.8,216.81 99.97,216.79 C100.14,216.77 100.35,216.74 100.6,216.7 L100.6,213.88 C99.72,213.88 99.28,213.36 99.28,212.31 L99.28,212.31 Z" id="Fill-5" fill="#FFFFFE"></path>
            <polyline id="Fill-6" fill="#FFFFFE" points="137.8 172.23 137.8 190.21 117.63 190.21 117.63 172.23 108.99 172.23 108.99 216.7 117.63 216.7 117.63 197.72 137.8 197.72 137.8 216.7 146.38 216.7 146.38 172.23 137.8 172.23"></polyline>
            <path d="M161.09,197.53 C161.18,196.32 161.46,195.22 161.94,194.21 C162.42,193.21 163.04,192.36 163.79,191.65 C164.54,190.94 165.41,190.38 166.39,189.99 C167.37,189.59 168.42,189.39 169.55,189.39 C171.84,189.39 173.8,190.13 175.4,191.62 C177.01,193.1 177.92,195.07 178.13,197.53 L161.09,197.53 Z M185.61,193.78 C184.84,191.73 183.71,189.94 182.23,188.39 C180.75,186.85 178.95,185.61 176.85,184.69 C174.74,183.78 172.35,183.32 169.67,183.32 C167,183.32 164.59,183.78 162.44,184.69 C160.29,185.61 158.46,186.86 156.96,188.42 C155.46,189.99 154.31,191.8 153.52,193.87 C152.72,195.94 152.33,198.14 152.33,200.48 C152.33,202.73 152.73,204.88 153.55,206.93 C154.36,208.97 155.52,210.77 157.02,212.31 C158.53,213.86 160.34,215.08 162.47,215.98 C164.6,216.87 166.98,217.32 169.61,217.32 C173.29,217.32 176.45,216.52 179.1,214.91 C181.75,213.31 183.68,211.25 184.89,208.74 L177.69,206.74 C177.15,208.08 176.13,209.15 174.65,209.97 C173.17,210.78 171.59,211.19 169.92,211.19 C168.84,211.19 167.8,211 166.79,210.62 C165.79,210.25 164.89,209.7 164.1,208.99 C163.31,208.29 162.66,207.43 162.16,206.43 C161.66,205.43 161.35,204.28 161.22,202.98 L186.58,202.98 C186.67,202.65 186.72,202.23 186.74,201.73 C186.76,201.23 186.77,200.71 186.77,200.16 C186.77,197.95 186.39,195.82 185.61,193.78 L185.61,193.78 Z" id="Fill-7" fill="#FFFFFE"></path>
            <g id="Group-11" transform="translate(191.000000, 170.000000)">
                <mask id="mask-2" fill="white">
                    <use xlink:href="#path-1"></use>
                </mask>
                <g id="Clip-9"></g>
                <path d="M16,39.12 C15.46,39.37 14.88,39.58 14.28,39.75 C13.67,39.91 13.12,40 12.62,40 C11.53,40 10.7,39.66 10.11,38.99 C9.53,38.33 9.24,37.39 9.24,36.18 L9.24,0.98 L0.84,0.98 L0.84,39.12 C0.84,41.71 1.57,43.7 3.01,45.1 C4.45,46.5 6.48,47.2 9.11,47.2 C10.32,47.2 11.68,47.05 13.18,46.76 C14.69,46.47 16,46.05 17.13,45.51 L16,39.12" id="Fill-8" fill="#FFFFFE" mask="url(#mask-2)"></path>
                <path d="M45.56,33.98 C45.14,35.2 44.56,36.26 43.81,37.18 C43.05,38.1 42.15,38.83 41.08,39.37 C40.02,39.91 38.86,40.18 37.61,40.18 C35.81,40.18 34.14,39.57 32.6,38.34 C31.05,37.11 29.9,35.55 29.15,33.67 L29.15,25.97 C29.44,25.18 29.87,24.44 30.44,23.78 C31,23.11 31.63,22.52 32.35,22.02 C33.05,21.52 33.83,21.14 34.66,20.86 C35.5,20.59 36.31,20.46 37.11,20.46 C38.4,20.46 39.6,20.71 40.71,21.21 C41.81,21.71 42.77,22.4 43.59,23.27 C44.4,24.15 45.04,25.19 45.5,26.38 C45.96,27.56 46.19,28.85 46.19,30.23 C46.19,31.52 45.98,32.77 45.56,33.98 Z M53.61,23.68 C52.83,21.62 51.77,19.82 50.41,18.3 C49.06,16.77 47.44,15.56 45.56,14.66 C43.68,13.77 41.63,13.32 39.42,13.32 C36.92,13.32 34.7,13.87 32.78,14.98 C30.86,16.08 29.3,17.6 28.09,19.52 L28.09,13.88 L20.76,13.88 L20.76,60 L29.15,60 L29.15,40.94 C30.24,42.9 31.74,44.45 33.66,45.6 C35.58,46.75 37.84,47.32 40.42,47.32 C42.51,47.32 44.43,46.89 46.19,46.01 C47.94,45.13 49.45,43.92 50.73,42.38 C52,40.83 52.99,39.02 53.7,36.93 C54.41,34.84 54.77,32.61 54.77,30.23 C54.77,27.93 54.38,25.75 53.61,23.68 L53.61,23.68 Z" id="Fill-10" fill="#FFFFFE" mask="url(#mask-2)"></path>
            </g>
            <path d="M274.17,200.79 C273.14,200.04 271.83,199.37 270.22,198.79 C268.61,198.2 266.68,197.62 264.43,197.03 C263.22,196.74 262.2,196.46 261.39,196.19 C260.58,195.92 259.92,195.63 259.42,195.34 C258.92,195.05 258.55,194.72 258.32,194.34 C258.09,193.96 257.98,193.48 257.98,192.9 C257.98,191.61 258.46,190.67 259.42,190.08 C260.38,189.5 261.57,189.2 262.99,189.2 C264.53,189.2 266.09,189.5 267.65,190.08 C269.22,190.67 270.84,191.58 272.51,192.84 L275.89,187.76 C274.09,186.18 272.12,185.03 269.97,184.32 C267.82,183.61 265.51,183.25 263.05,183.25 C261.21,183.25 259.51,183.51 257.95,184.01 C256.38,184.51 255.01,185.23 253.84,186.17 C252.67,187.11 251.77,188.24 251.12,189.58 C250.47,190.92 250.15,192.42 250.15,194.09 C250.15,195.34 250.36,196.42 250.77,197.31 C251.19,198.21 251.86,199.01 252.78,199.69 C253.7,200.38 254.91,201 256.41,201.54 C257.91,202.09 259.73,202.65 261.86,203.23 C264.41,203.94 266.24,204.57 267.37,205.11 C268.5,205.65 269.06,206.51 269.06,207.68 C269.06,208.85 268.58,209.75 267.62,210.37 C266.66,211 265.35,211.31 263.68,211.31 C261.8,211.31 259.91,210.95 258.01,210.22 C256.11,209.49 254.16,208.41 252.15,206.99 L249.02,212.25 C250.9,213.88 253.15,215.13 255.79,216.01 C258.42,216.89 261.11,217.32 263.86,217.32 C267.96,217.32 271.19,216.39 273.57,214.54 C274.72,213.64 275.58,212.59 276.18,211.38 L276.18,202.95 C275.7,202.15 275.03,201.42 274.17,200.79" id="Fill-12" fill="#FFFFFE"></path>
            <path d="M114.203,153.529 C119.723,149.644 123.325,143.003 123.325,126.282 C123.325,105.651 110.594,97.7 110.594,97.7 C118.094,94.366 123.325,86.839 123.325,78.095 C123.325,77.277 123.277,76.472 123.188,75.682 C126.68,78.15 130.935,79.593 135.527,79.593 C140.119,79.593 144.375,78.15 147.867,75.682 C147.777,76.472 147.729,77.277 147.729,78.095 C147.729,86.839 152.96,94.366 160.467,97.7 C160.467,97.7 147.729,107.605 147.729,126.282 C147.729,141.266 151.338,149.644 156.858,153.529 L114.203,153.529" id="Fill-13" fill="#FFFFFE"></path>
            <path d="M135.663,66.363 C131.636,66.46 130.551,61.803 130.539,57.502 C130.527,53.201 134.984,45.497 134.984,45.497 C134.984,45.497 139.727,52.142 140.365,57.321 C141.026,62.671 139.628,66.265 135.663,66.363" id="Fill-14" fill="#FFFFFE"></path>
            <path d="M122.021,40.09 C118.514,42.071 115.366,38.471 113.333,34.681 C111.3,30.891 111.61,21.996 111.61,21.996 C111.61,21.996 118.919,25.629 121.919,29.899 C125.018,34.31 125.475,38.14 122.021,40.09" id="Fill-15" fill="#FFFFFE"></path>
            <path d="M149.976,40.164 C146.308,38.496 147.363,33.832 149.229,29.956 C151.094,26.081 158.464,21.093 158.464,21.093 C158.464,21.093 159.834,29.14 158.15,34.078 C156.411,39.182 153.586,41.807 149.976,40.164" id="Fill-16" fill="#FFFFFE"></path>
            <path d="M135.699,32.311 C129.617,32.444 127.999,25.406 127.999,18.912 C127.999,12.418 134.76,0.804 134.76,0.804 C134.76,0.804 141.892,10.855 142.836,18.677 C143.811,26.759 141.686,32.181 135.699,32.311" id="Fill-17" fill="#FFFFFE"></path>
            <path d="M99.368,97.566 C99.501,103.648 92.463,105.267 85.969,105.267 C79.475,105.267 67.861,98.505 67.861,98.505 C67.861,98.505 77.913,91.372 85.735,90.429 C93.817,89.453 99.238,91.578 99.368,97.566" id="Fill-18" fill="#FFFFFE"></path>
            <path d="M114.682,64.153 C109.487,67.318 104.557,62.041 101.299,56.423 C98.042,50.805 98.066,37.366 98.066,37.366 C98.066,37.366 109.278,42.485 114.018,48.779 C118.915,55.281 119.796,61.036 114.682,64.153" id="Fill-19" fill="#FFFFFE"></path>
            <path d="M153.088,63.262 C148.49,59.28 152.011,52.975 156.368,48.159 C160.725,43.344 173.531,39.269 173.531,39.269 C173.531,39.269 172.076,51.507 167.527,57.941 C162.828,64.588 157.615,67.182 153.088,63.262" id="Fill-20" fill="#FFFFFE"></path>
            <path d="M172.754,97.903 C172.622,91.821 179.659,90.201 186.153,90.201 C192.647,90.201 204.261,96.963 204.261,96.963 C204.261,96.963 194.209,104.096 186.387,105.039 C178.305,106.014 172.884,103.89 172.754,97.903" id="Fill-21" fill="#FFFFFE"></path>
            <path d="M110.588,83.968 C108.363,87.527 103.69,85.797 99.944,83.34 C96.198,80.883 92.057,72.587 92.057,72.587 C92.057,72.587 100.554,72.277 105.424,74.692 C110.455,77.188 112.779,80.465 110.588,83.968" id="Fill-22" fill="#FFFFFE"></path>
            <path d="M83.719,80.694 C82.752,84.778 77.772,84.638 73.436,83.512 C69.099,82.385 62.517,75.855 62.517,75.855 C62.517,75.855 70.466,72.836 75.854,73.563 C81.419,74.314 84.671,76.673 83.719,80.694" id="Fill-23" fill="#FFFFFE"></path>
            <path d="M93.006,61.962 C90.435,65.279 85.96,63.089 82.48,60.268 C78.999,57.447 75.711,48.778 75.711,48.778 C75.711,48.778 84.197,49.322 88.8,52.214 C93.555,55.202 95.538,58.697 93.006,61.962" id="Fill-24" fill="#FFFFFE"></path>
            <path d="M187.689,80.694 C188.656,84.778 193.636,84.638 197.972,83.512 C202.309,82.385 208.891,75.855 208.891,75.855 C208.891,75.855 200.941,72.836 195.555,73.563 C189.989,74.314 186.737,76.673 187.689,80.694" id="Fill-25" fill="#FFFFFE"></path>
            <path d="M178.402,61.962 C180.973,65.279 185.448,63.089 188.929,60.268 C192.409,57.447 195.696,48.778 195.696,48.778 C195.696,48.778 187.21,49.322 182.608,52.214 C177.853,55.202 175.87,58.697 178.402,61.962" id="Fill-26" fill="#FFFFFE"></path>
            <path d="M159.641,84.119 C157.005,80.854 160.167,77.003 163.714,74.266 C167.261,71.529 176.455,70.327 176.455,70.327 C176.455,70.327 173.971,78.46 170.096,82.272 C166.092,86.211 162.235,87.335 159.641,84.119" id="Fill-27" fill="#FFFFFE"></path>
            <path d="M165.499,109.576 C165.672,109.576 165.809,109.52 165.91,109.406 C166.01,109.291 166.061,109.13 166.061,108.922 C166.061,108.7 166.003,108.535 165.889,108.428 C165.774,108.321 165.638,108.267 165.478,108.267 L164.542,108.267 L164.542,109.576 L165.499,109.576 Z M163.555,107.394 L165.582,107.394 C165.79,107.394 165.984,107.439 166.165,107.529 C166.345,107.618 166.499,107.737 166.627,107.882 C166.755,108.028 166.856,108.191 166.929,108.37 C167.001,108.551 167.038,108.735 167.038,108.922 C167.038,109.206 166.961,109.473 166.809,109.722 C166.657,109.972 166.456,110.145 166.206,110.242 L167.277,111.968 L166.165,111.968 L165.208,110.429 L164.542,110.429 L164.542,111.968 L163.555,111.968 L163.555,107.394 Z M165.239,112.946 C165.71,112.946 166.15,112.866 166.56,112.706 C166.968,112.547 167.324,112.325 167.625,112.041 C167.927,111.757 168.164,111.415 168.337,111.017 C168.511,110.618 168.597,110.184 168.597,109.712 C168.597,109.254 168.512,108.828 168.343,108.433 C168.173,108.038 167.939,107.695 167.641,107.404 C167.343,107.113 166.989,106.884 166.581,106.718 C166.171,106.551 165.724,106.468 165.239,106.468 C164.754,106.468 164.309,106.551 163.903,106.718 C163.498,106.884 163.147,107.113 162.853,107.404 C162.558,107.695 162.328,108.036 162.162,108.428 C161.995,108.82 161.912,109.241 161.912,109.692 C161.912,110.149 161.995,110.575 162.162,110.97 C162.328,111.366 162.558,111.71 162.853,112.004 C163.147,112.299 163.498,112.53 163.903,112.696 C164.309,112.863 164.754,112.946 165.239,112.946 Z M165.239,113.455 C164.678,113.455 164.158,113.36 163.68,113.169 C163.201,112.979 162.787,112.715 162.437,112.379 C162.087,112.042 161.815,111.646 161.621,111.189 C161.427,110.731 161.33,110.232 161.33,109.692 C161.33,109.158 161.427,108.662 161.621,108.204 C161.815,107.747 162.087,107.352 162.437,107.019 C162.787,106.687 163.201,106.425 163.68,106.235 C164.158,106.043 164.678,105.949 165.239,105.949 C165.801,105.949 166.322,106.043 166.804,106.235 C167.286,106.425 167.703,106.687 168.057,107.019 C168.41,107.352 168.686,107.747 168.883,108.204 C169.081,108.662 169.18,109.158 169.18,109.692 C169.18,110.232 169.081,110.731 168.883,111.189 C168.686,111.646 168.41,112.042 168.057,112.379 C167.703,112.715 167.286,112.979 166.804,113.169 C166.322,113.36 165.801,113.455 165.239,113.455 L165.239,113.455 Z" id="Fill-28" fill="#FFFFFE"></path>
        </g>
    </g>
</svg>